# xmcd
#
# Track frame offsets: 
#        150
#        21364
#        45093
#        61759
#        86025
#        101443
#        119328
#        138118
#        159332
#        174186
#
# Disc length: 2556 seconds
#
# Revision: 0
# Processed by: cddbd v1.5.2PL0 Copyright (c) Steve Scherf et al.
# Submitted via: ExactAudioCopy v1.0b1
#
DISCID=6c09fa0a
DTITLE=Billy Ray Cyrus - Change My Mind
DYEAR=2012
DGENRE=Country
TTITLE0=Change My Mind
TTITLE1=Once Again
TTITLE2=Hillbilly Heart
TTITLE3=Tomorrow Became Yesterday
TTITLE4=Good As Gone
TTITLE5=Forgot To Forget
TTITLE6=Thats What Daddys Do
TTITLE7=Hope Is Just Ahead
TTITLE8=Im So Miserable
TTITLE9=Stomp
EXTD=
EXTT0=
EXTT1=
EXTT2=
EXTT3=
EXTT4=
EXTT5=
EXTT6=
EXTT7=
EXTT8=
EXTT9=
PLAYORDER=
